<mxfile host="app.diagrams.net" modified="2023-12-28T20:46:23.688Z" agent="Mozilla/5.0 (Windows NT 10.0; Win64; x64) AppleWebKit/537.36 (KHTML, like Gecko) Chrome/120.0.0.0 Safari/537.36" etag="M-0mjWzdYTn8VSgWP14v" version="22.1.15" type="device">
  <diagram name="Page-1" id="u2X8MykUNrL_x2ueftgx">
    <mxGraphModel dx="2600" dy="1983" grid="1" gridSize="10" guides="1" tooltips="1" connect="1" arrows="1" fold="1" page="1" pageScale="1" pageWidth="850" pageHeight="1100" math="0" shadow="0">
      <root>
        <mxCell id="0" />
        <mxCell id="1" parent="0" />
        <mxCell id="N5DTbEP3JIyETLeJvtbg-42" style="edgeStyle=orthogonalEdgeStyle;rounded=0;orthogonalLoop=1;jettySize=auto;html=1;entryX=0.5;entryY=0;entryDx=0;entryDy=0;endArrow=diamond;endFill=0;" edge="1" parent="1" source="N5DTbEP3JIyETLeJvtbg-1" target="N5DTbEP3JIyETLeJvtbg-3">
          <mxGeometry relative="1" as="geometry">
            <Array as="points">
              <mxPoint x="245" y="140" />
              <mxPoint x="630" y="140" />
            </Array>
          </mxGeometry>
        </mxCell>
        <mxCell id="N5DTbEP3JIyETLeJvtbg-47" style="edgeStyle=orthogonalEdgeStyle;rounded=0;orthogonalLoop=1;jettySize=auto;html=1;entryX=0.25;entryY=1;entryDx=0;entryDy=0;" edge="1" parent="1" source="N5DTbEP3JIyETLeJvtbg-1" target="N5DTbEP3JIyETLeJvtbg-37">
          <mxGeometry relative="1" as="geometry">
            <Array as="points">
              <mxPoint x="245" y="80" />
              <mxPoint x="603" y="80" />
            </Array>
          </mxGeometry>
        </mxCell>
        <mxCell id="N5DTbEP3JIyETLeJvtbg-50" style="edgeStyle=orthogonalEdgeStyle;rounded=0;orthogonalLoop=1;jettySize=auto;html=1;endArrow=open;endFill=0;" edge="1" parent="1" source="N5DTbEP3JIyETLeJvtbg-1" target="N5DTbEP3JIyETLeJvtbg-4">
          <mxGeometry relative="1" as="geometry" />
        </mxCell>
        <mxCell id="N5DTbEP3JIyETLeJvtbg-1" value="Renderer" style="html=1;whiteSpace=wrap;fontStyle=1" vertex="1" parent="1">
          <mxGeometry x="190" y="180" width="110" height="50" as="geometry" />
        </mxCell>
        <mxCell id="N5DTbEP3JIyETLeJvtbg-31" style="edgeStyle=orthogonalEdgeStyle;rounded=0;orthogonalLoop=1;jettySize=auto;html=1;entryX=0.5;entryY=0;entryDx=0;entryDy=0;endArrow=open;endFill=0;" edge="1" parent="1" source="N5DTbEP3JIyETLeJvtbg-3" target="N5DTbEP3JIyETLeJvtbg-15">
          <mxGeometry relative="1" as="geometry" />
        </mxCell>
        <mxCell id="N5DTbEP3JIyETLeJvtbg-45" style="edgeStyle=orthogonalEdgeStyle;rounded=0;orthogonalLoop=1;jettySize=auto;html=1;exitX=0.75;exitY=0;exitDx=0;exitDy=0;endArrow=none;endFill=0;startArrow=open;startFill=0;dashed=1;" edge="1" parent="1" source="N5DTbEP3JIyETLeJvtbg-3">
          <mxGeometry relative="1" as="geometry">
            <mxPoint x="658" y="120" as="targetPoint" />
            <Array as="points">
              <mxPoint x="658" y="151" />
              <mxPoint x="658" y="151" />
            </Array>
          </mxGeometry>
        </mxCell>
        <mxCell id="N5DTbEP3JIyETLeJvtbg-54" style="edgeStyle=orthogonalEdgeStyle;rounded=0;orthogonalLoop=1;jettySize=auto;html=1;exitX=0.25;exitY=0;exitDx=0;exitDy=0;entryX=0.5;entryY=1;entryDx=0;entryDy=0;" edge="1" parent="1" source="N5DTbEP3JIyETLeJvtbg-3" target="N5DTbEP3JIyETLeJvtbg-37">
          <mxGeometry relative="1" as="geometry" />
        </mxCell>
        <mxCell id="N5DTbEP3JIyETLeJvtbg-3" value="Headset" style="html=1;whiteSpace=wrap;fontStyle=1" vertex="1" parent="1">
          <mxGeometry x="575" y="180" width="110" height="50" as="geometry" />
        </mxCell>
        <mxCell id="N5DTbEP3JIyETLeJvtbg-51" style="edgeStyle=orthogonalEdgeStyle;rounded=0;orthogonalLoop=1;jettySize=auto;html=1;entryX=0.5;entryY=0;entryDx=0;entryDy=0;endArrow=open;endFill=0;" edge="1" parent="1" source="N5DTbEP3JIyETLeJvtbg-4" target="N5DTbEP3JIyETLeJvtbg-6">
          <mxGeometry relative="1" as="geometry" />
        </mxCell>
        <mxCell id="N5DTbEP3JIyETLeJvtbg-4" value="«Component»&lt;br style=&quot;border-color: var(--border-color);&quot;&gt;&lt;b&gt;RendererProcess&lt;/b&gt;" style="html=1;dropTarget=0;whiteSpace=wrap;" vertex="1" parent="1">
          <mxGeometry x="155" y="270" width="180" height="90" as="geometry" />
        </mxCell>
        <mxCell id="N5DTbEP3JIyETLeJvtbg-5" value="" style="shape=module;jettyWidth=8;jettyHeight=4;" vertex="1" parent="N5DTbEP3JIyETLeJvtbg-4">
          <mxGeometry x="1" width="20" height="20" relative="1" as="geometry">
            <mxPoint x="-27" y="7" as="offset" />
          </mxGeometry>
        </mxCell>
        <mxCell id="N5DTbEP3JIyETLeJvtbg-52" style="edgeStyle=orthogonalEdgeStyle;rounded=0;orthogonalLoop=1;jettySize=auto;html=1;entryX=0.5;entryY=0;entryDx=0;entryDy=0;endArrow=open;endFill=0;" edge="1" parent="1" source="N5DTbEP3JIyETLeJvtbg-6" target="N5DTbEP3JIyETLeJvtbg-8">
          <mxGeometry relative="1" as="geometry" />
        </mxCell>
        <mxCell id="N5DTbEP3JIyETLeJvtbg-53" style="edgeStyle=orthogonalEdgeStyle;rounded=0;orthogonalLoop=1;jettySize=auto;html=1;entryX=0.5;entryY=0;entryDx=0;entryDy=0;endArrow=open;endFill=0;" edge="1" parent="1" source="N5DTbEP3JIyETLeJvtbg-6" target="N5DTbEP3JIyETLeJvtbg-10">
          <mxGeometry relative="1" as="geometry" />
        </mxCell>
        <mxCell id="N5DTbEP3JIyETLeJvtbg-6" value="«Component»&lt;br style=&quot;border-color: var(--border-color);&quot;&gt;&lt;b&gt;RenderTarget&lt;/b&gt;" style="html=1;dropTarget=0;whiteSpace=wrap;" vertex="1" parent="1">
          <mxGeometry x="155" y="410" width="180" height="90" as="geometry" />
        </mxCell>
        <mxCell id="N5DTbEP3JIyETLeJvtbg-7" value="" style="shape=module;jettyWidth=8;jettyHeight=4;" vertex="1" parent="N5DTbEP3JIyETLeJvtbg-6">
          <mxGeometry x="1" width="20" height="20" relative="1" as="geometry">
            <mxPoint x="-27" y="7" as="offset" />
          </mxGeometry>
        </mxCell>
        <mxCell id="N5DTbEP3JIyETLeJvtbg-8" value="«Component»&lt;br style=&quot;border-color: var(--border-color);&quot;&gt;&lt;b&gt;DataBuffer&lt;/b&gt;" style="html=1;dropTarget=0;whiteSpace=wrap;" vertex="1" parent="1">
          <mxGeometry x="-25" y="550" width="180" height="90" as="geometry" />
        </mxCell>
        <mxCell id="N5DTbEP3JIyETLeJvtbg-9" value="" style="shape=module;jettyWidth=8;jettyHeight=4;" vertex="1" parent="N5DTbEP3JIyETLeJvtbg-8">
          <mxGeometry x="1" width="20" height="20" relative="1" as="geometry">
            <mxPoint x="-27" y="7" as="offset" />
          </mxGeometry>
        </mxCell>
        <mxCell id="N5DTbEP3JIyETLeJvtbg-10" value="«Component»&lt;br style=&quot;border-color: var(--border-color);&quot;&gt;&lt;b&gt;ImageBuffer&lt;/b&gt;" style="html=1;dropTarget=0;whiteSpace=wrap;" vertex="1" parent="1">
          <mxGeometry x="335" y="550" width="180" height="90" as="geometry" />
        </mxCell>
        <mxCell id="N5DTbEP3JIyETLeJvtbg-11" value="" style="shape=module;jettyWidth=8;jettyHeight=4;" vertex="1" parent="N5DTbEP3JIyETLeJvtbg-10">
          <mxGeometry x="1" width="20" height="20" relative="1" as="geometry">
            <mxPoint x="-27" y="7" as="offset" />
          </mxGeometry>
        </mxCell>
        <mxCell id="N5DTbEP3JIyETLeJvtbg-25" style="edgeStyle=orthogonalEdgeStyle;rounded=0;orthogonalLoop=1;jettySize=auto;html=1;entryX=0.5;entryY=0;entryDx=0;entryDy=0;endArrow=open;endFill=0;" edge="1" parent="1" source="N5DTbEP3JIyETLeJvtbg-15" target="N5DTbEP3JIyETLeJvtbg-22">
          <mxGeometry relative="1" as="geometry" />
        </mxCell>
        <mxCell id="N5DTbEP3JIyETLeJvtbg-15" value="Swapchain" style="shape=module;align=left;spacingLeft=20;align=center;verticalAlign=top;whiteSpace=wrap;html=1;fontStyle=1" vertex="1" parent="1">
          <mxGeometry x="580" y="270" width="100" height="50" as="geometry" />
        </mxCell>
        <mxCell id="N5DTbEP3JIyETLeJvtbg-28" style="edgeStyle=orthogonalEdgeStyle;rounded=0;orthogonalLoop=1;jettySize=auto;html=1;entryX=0.5;entryY=0;entryDx=0;entryDy=0;endArrow=open;endFill=0;" edge="1" parent="1" source="N5DTbEP3JIyETLeJvtbg-16" target="N5DTbEP3JIyETLeJvtbg-17">
          <mxGeometry relative="1" as="geometry" />
        </mxCell>
        <mxCell id="N5DTbEP3JIyETLeJvtbg-38" style="edgeStyle=orthogonalEdgeStyle;rounded=0;orthogonalLoop=1;jettySize=auto;html=1;entryX=0.25;entryY=0;entryDx=0;entryDy=0;endArrow=open;endFill=0;dashed=1;" edge="1" parent="1" source="N5DTbEP3JIyETLeJvtbg-16" target="N5DTbEP3JIyETLeJvtbg-1">
          <mxGeometry relative="1" as="geometry">
            <Array as="points">
              <mxPoint x="825" y="120" />
              <mxPoint x="218" y="120" />
            </Array>
          </mxGeometry>
        </mxCell>
        <mxCell id="N5DTbEP3JIyETLeJvtbg-46" value="connect()" style="edgeLabel;html=1;align=center;verticalAlign=middle;resizable=0;points=[];" vertex="1" connectable="0" parent="N5DTbEP3JIyETLeJvtbg-38">
          <mxGeometry x="0.0882" y="-2" relative="1" as="geometry">
            <mxPoint as="offset" />
          </mxGeometry>
        </mxCell>
        <mxCell id="N5DTbEP3JIyETLeJvtbg-39" style="edgeStyle=orthogonalEdgeStyle;rounded=0;orthogonalLoop=1;jettySize=auto;html=1;exitX=0.75;exitY=0;exitDx=0;exitDy=0;entryX=0.5;entryY=0;entryDx=0;entryDy=0;endArrow=diamondThin;endFill=0;" edge="1" parent="1" source="N5DTbEP3JIyETLeJvtbg-16" target="N5DTbEP3JIyETLeJvtbg-20">
          <mxGeometry relative="1" as="geometry" />
        </mxCell>
        <mxCell id="N5DTbEP3JIyETLeJvtbg-55" style="edgeStyle=orthogonalEdgeStyle;rounded=0;orthogonalLoop=1;jettySize=auto;html=1;exitX=0.25;exitY=0;exitDx=0;exitDy=0;entryX=0.75;entryY=1;entryDx=0;entryDy=0;" edge="1" parent="1" source="N5DTbEP3JIyETLeJvtbg-16" target="N5DTbEP3JIyETLeJvtbg-37">
          <mxGeometry relative="1" as="geometry" />
        </mxCell>
        <mxCell id="N5DTbEP3JIyETLeJvtbg-16" value="MirrorView" style="html=1;whiteSpace=wrap;fontStyle=1" vertex="1" parent="1">
          <mxGeometry x="770" y="180" width="110" height="50" as="geometry" />
        </mxCell>
        <mxCell id="N5DTbEP3JIyETLeJvtbg-17" value="Swapchain" style="shape=module;align=left;spacingLeft=20;align=center;verticalAlign=top;whiteSpace=wrap;html=1;fontStyle=1" vertex="1" parent="1">
          <mxGeometry x="775" y="270" width="100" height="50" as="geometry" />
        </mxCell>
        <mxCell id="N5DTbEP3JIyETLeJvtbg-27" style="edgeStyle=orthogonalEdgeStyle;rounded=0;orthogonalLoop=1;jettySize=auto;html=1;entryX=0.5;entryY=0;entryDx=0;entryDy=0;endArrow=open;endFill=0;" edge="1" parent="1" source="N5DTbEP3JIyETLeJvtbg-20" target="N5DTbEP3JIyETLeJvtbg-21">
          <mxGeometry relative="1" as="geometry" />
        </mxCell>
        <mxCell id="N5DTbEP3JIyETLeJvtbg-20" value="Window" style="html=1;whiteSpace=wrap;fontStyle=1" vertex="1" parent="1">
          <mxGeometry x="1000" y="180" width="110" height="50" as="geometry" />
        </mxCell>
        <mxCell id="N5DTbEP3JIyETLeJvtbg-21" value="Surface" style="shape=module;align=left;spacingLeft=20;align=center;verticalAlign=top;whiteSpace=wrap;html=1;fontStyle=1" vertex="1" parent="1">
          <mxGeometry x="1005" y="270" width="100" height="50" as="geometry" />
        </mxCell>
        <mxCell id="N5DTbEP3JIyETLeJvtbg-22" value="Surface" style="shape=module;align=left;spacingLeft=20;align=center;verticalAlign=top;whiteSpace=wrap;html=1;fontStyle=1" vertex="1" parent="1">
          <mxGeometry x="580" y="360" width="100" height="50" as="geometry" />
        </mxCell>
        <mxCell id="N5DTbEP3JIyETLeJvtbg-37" value="Context" style="html=1;whiteSpace=wrap;fontStyle=1" vertex="1" parent="1">
          <mxGeometry x="575" y="-30" width="110" height="50" as="geometry" />
        </mxCell>
        <mxCell id="N5DTbEP3JIyETLeJvtbg-56" value="TSEngine Private Core" style="shape=umlFrame;whiteSpace=wrap;html=1;pointerEvents=0;width=170;height=30;" vertex="1" parent="1">
          <mxGeometry x="-60" y="-60" width="1200" height="770" as="geometry" />
        </mxCell>
      </root>
    </mxGraphModel>
  </diagram>
</mxfile>
